<svg xmlns="http://www.w3.org/2000/svg" viewBox="0 0 400 400" role="img" aria-label="Exemplo: planner com adesivos e washi tape">
  <!-- Ilustração de exemplo (placeholder). Trocar por foto real de assinante. -->
  <rect width="400" height="400" fill="#fbe3ec"/>
  <circle cx="340" cy="60" r="90" fill="#f4d3e4" opacity=".7"/>
  <g transform="rotate(-4 200 210)">
    <rect x="70" y="50" width="260" height="310" rx="16" fill="#fff" stroke="#ecd9e6" stroke-width="3"/>
    <g fill="#e6dcf6"><circle cx="70" cy="90" r="7"/><circle cx="70" cy="140" r="7"/><circle cx="70" cy="190" r="7"/><circle cx="70" cy="240" r="7"/><circle cx="70" cy="290" r="7"/></g>
    <rect x="130" y="40" width="140" height="30" fill="#c6e4f8" opacity=".9" transform="rotate(-3 200 55)"/>
    <text x="200" y="125" text-anchor="middle" font-family="Georgia,serif" font-size="30" fill="#5a3f9a">Meu mês</text>
    <g stroke="#e6dcf6" stroke-width="3"><line x1="105" y1="160" x2="295" y2="160"/><line x1="105" y1="195" x2="295" y2="195"/><line x1="105" y1="230" x2="295" y2="230"/><line x1="105" y1="265" x2="295" y2="265"/></g>
    <path d="M130 250 l10 -10 l10 10 l-10 10z" fill="#f09ab5"/>
    <circle cx="260" cy="225" r="16" fill="#f3d9a4"/><text x="260" y="231" text-anchor="middle" font-size="18">★</text>
    <path d="M215 300 q-18 -22 0 -34 q18 12 0 34z" fill="#f58aa8"/>
  </g>
  <g transform="rotate(32 330 330)"><rect x="250" y="320" width="150" height="20" rx="10" fill="#8b78c4"/><polygon points="250,320 225,330 250,340" fill="#f3d9c4"/></g>
  <text x="60" y="380" font-size="22" fill="#c9a45c">✦</text><text x="350" y="150" font-size="18" fill="#c9a45c">✦</text>
</svg>
